<svg id="Layer_1" data-name="Layer 1" xmlns="http://www.w3.org/2000/svg" viewBox="0 0 190 80"><defs><style>.cls-1{fill:#76b900;}</style></defs><path class="cls-1" d="M157.4,0H32.6V80H157.4ZM125.95,58.62422l28.25-50.85v67.8Zm-2.72031-1.693L39.64688,3.2H153.08125ZM62.43281,21.65312,35.8,71.95859V4.53047Zm2.70157,1.73516,56.59218,36.38047L113.21094,76.8H36.85781ZM116.78906,76.8l7.66875-15.33906L150.02344,76.8ZM127,71.92188v.34218a1.934,1.934,0,0,1-1.41406-1.34765A2.39359,2.39359,0,0,1,127,70.232v.37539l-.00156-.00039a1.06046,1.06046,0,0,0-.825.37735A1.47448,1.47448,0,0,0,127,71.92188ZM127,68.8h4.54687v4.8H127v-.5625c.09531.00938.19375.01523.29531.01523A7.22918,7.22918,0,0,0,131,71.84844c-.11719-.11875-.68594-.38906-.825-.50039a4.35923,4.35923,0,0,1-2.89844,1.334,2.11763,2.11763,0,0,1-.27656-.018v-.4a1.92906,1.92906,0,0,0,.33125.02891c1.28594,0,2.52031-1.50039,2.52031-1.50039a3.62,3.62,0,0,0-2.72344-1.35274c-.04375.00157-.08593.00469-.12812.00782Zm0,1.432v-.4332c.04219-.00313.08437-.00508.12812-.00664a2.60734,2.60734,0,0,1,1.96407,1.01875s-.84063,1.16719-1.74219,1.16719a1.08868,1.08868,0,0,1-.35-.05625V70.60742c.4625.05586.55469.25977.83125.72227l.61875-.52031a1.63722,1.63722,0,0,0-1.21094-.59141A2.36929,2.36929,0,0,0,127,70.232Zm0,2.432v.37344a3.46268,3.46268,0,0,1-2.70625-2.24492A5.121,5.121,0,0,1,127,69.44766v.35117a2.74188,2.74188,0,0,0-1.96563,1.06758A2.6543,2.6543,0,0,0,127,72.66406Z"/></svg>