<?xml version="1.0" encoding="utf-8"?>
<!-- Generator: Adobe Illustrator 25.4.1, SVG Export Plug-In . SVG Version: 6.00 Build 0)  -->
<svg version="1.1" id="Layer_1" xmlns="http://www.w3.org/2000/svg" xmlns:xlink="http://www.w3.org/1999/xlink" x="0px" y="0px"
	 viewBox="0 0 190 80" style="enable-background:new 0 0 190 80;" xml:space="preserve">
<style type="text/css">
	.st0{fill:none;}
	.st1{fill:#76B900;}
</style>
<rect class="st0" width="190" height="80"/>
<path class="st1" d="M124.4,13.1c-7.3-7.7-17.6-11.9-29-11.9c-14.8,0-24.1,7.1-29.3,13.2c-5.9,6.8-9.5,15.7-9.8,24
	c0,0.1,0,0.2,0,0.2l0,0c0,0.4,0,0.7,0,1c0,15.7,12.3,38.9,38.7,38.9l0,0c4.7,0,8.7-0.7,12.3-1.9c0.5-0.2,0.8-0.3,0.9-0.3
	c13.7-4.8,19.4-15.9,19.5-16c0.7-1.5,0.2-2.8-0.6-3.4c-1-0.9-2.8-1.1-3.8-0.4c-0.1,0.1-12.8,7-25.4-0.6C89.1,50.4,87.7,43.7,87.6,41
	c-0.2-2.9,0.7-5.5,2.2-6.8c1.9-1.5,4.4-2.1,6.7-1.8c1.8,0.3,3.4,1.2,4.2,2.4c1.9,2.8,1.8,4.2,1.8,5c0,0.1,0,0.2,0,0.3v0.2
	c0,0.6,0,1.3-0.5,2.2c-0.3,0.5-0.8,1.1-1.2,1.8c-0.8,1.2-1.4,1.9-1.5,2.7l-0.1,0.2v0.2c0,0.3,0.1,1.8,1.2,2.7l0.1,0.1
	c2.7,2.4,7.1,3.5,13.2,3.5c9.4,0,19.2-6,19.9-19.2C133.9,27.6,130.4,19.5,124.4,13.1z M96.2,58.8c11.6,7,23.2,3.2,27.4,1.4
	c-1.9,2.9-7.2,9.5-16.6,12.7l0,0c-0.1,0-5.2,1.9-11.6,0.4c-6.7-1.7-12.6-6.9-14.5-12.9C78.2,52.1,79.3,45,84,39.3
	C84,40,84,40.6,84,41.3C84.4,48.1,88.9,54.5,96.2,58.8z M87.7,31.5c-7.4,4.9-15.2,14.2-10.2,30.1c1.6,5.1,5.7,9.8,10.9,12.7
	c-19.4-3.5-28.5-21.9-28.5-34.7c0-0.3,0-0.6,0-0.9c0.3-1.8,2.8-14.1,17.6-16.3c10.1-1.5,16.7,2.7,20.6,6.9c-0.4-0.1-0.7-0.2-1.1-0.2
	C93.8,28.5,90.4,29.4,87.7,31.5z M130,34.4c-0.6,11.7-9.2,15.9-16.4,15.9c-3.6,0-8.4-0.5-10.9-2.7c0.2-0.4,0.6-0.8,0.8-1.2
	c0.5-0.6,1-1.4,1.4-2.1c0.8-1.4,0.9-2.7,0.9-3.5h0.1v-0.1c0.1-2.7-0.3-7.9-4.1-12.5c-4.3-5.2-12.1-11.1-24.8-9.3
	c-6.3,0.9-10.7,3.4-13.7,6.3c1.5-3.1,3.3-6,5.5-8.5C73.6,11.3,82,4.8,95.5,4.8c13.4,0,21.8,5.8,26.5,10.8
	C127.1,21.1,130.3,28.5,130,34.4z"/>
</svg>
