<svg id="Layer_1" data-name="Layer 1" xmlns="http://www.w3.org/2000/svg" viewBox="0 0 190 80"><defs><style>.cls-1{fill:#76b900;}</style></defs><path class="cls-1" d="M55,39.98449C55.449,17.67471,72.69342.06794,95.019.05219A39.62506,39.62506,0,0,1,134.9984,39.3197q.00314.34815.00014.6963A39.62509,39.62509,0,0,1,95.683,79.94825q-.30447.00237-.60893.00006C72.67767,79.96407,55.4254,62.2864,55,39.98449Zm31.314,34.81965a5.86143,5.86143,0,0,0,1.12652-.87443c.53569-.68537.97684-1.44951,1.46526-2.17426,2.99355-4.50608,6.00285-9.00427,8.98063-13.5261a1.57552,1.57552,0,0,0,.1812-1.2368c-.10241-.24421-.68537-.386-1.07138-.40177-1.16591-.04726-2.36332.08666-3.52135,0A16.87413,16.87413,0,0,1,82.966,51.43085c-2.3003-2.36332-3.3638-5.34111-4.577-8.25588-1.8434-4.41942-3.56862-8.894-5.349-13.337q-2.27668-5.65621-4.54547-11.24942c-.40964-1.01623-1.13439-1.14227-1.85127-.33874a7.87727,7.87727,0,0,0-.50417.646,34.733,34.733,0,0,0-6.12889,28.19446C62.46811,59.40314,69.84956,67.982,81.28017,73.08679,82.83209,73.73276,84.50217,74.18967,86.31405,74.80414Zm31.834-47.18772h-9.45329c-.43328,0-1.07926.17331-1.21318.46479s.11817.90594.37814,1.24469c4.51394,5.8059,5.35686,12.89587,1.34709,19.26109-4.34064,6.8694-8.97276,13.55761-13.43944,20.33247-1.14227,1.70947-2.3003,3.40319-3.41894,5.12841-.63022.98472-.25209,1.57555.90594,1.63858a39.2,39.2,0,0,0,8.8152-.583,35.379,35.379,0,0,0,23.003-15.62158A33.16527,33.16527,0,0,0,130.587,43.67915a36.67073,36.67073,0,0,0-1.57555-15.1174,1.18167,1.18167,0,0,0-1.3077-.95321c-3.222.02364-6.40461.00788-9.58722.00788Zm-8.32678-4.36427h14.8338c.43328,0,1.12652-.14968,1.22893-.41752a1.72524,1.72524,0,0,0-.24421-1.40224,59.41439,59.41439,0,0,0-4.72665-6.07374C111.8222,5.90535,100.6358,2.75425,87.89747,4.9679a33.512,33.512,0,0,0-15.96819,7.69656,1.57553,1.57553,0,0,0-.51993,2.04821c2.36332,5.79015,4.63211,11.58817,6.97968,17.33105a1.65436,1.65436,0,0,0,.89806.84292c.59871.20482.84292-.33086,1.158-.78778a29.55037,29.55037,0,0,1,3.25351-4.21459,17.12625,17.12625,0,0,1,12.38383-4.63212C100.65943,23.26791,105.22065,23.25215,109.82125,23.25215Zm-2.36333,16.756c.41752-6.68033-5.72712-12.15536-11.6118-12.46259A12.7794,12.7794,0,0,0,82.61151,39.36215c-.33875,7.58627,6.1604,12.88012,11.8954,13.10069,7.40508.30723,13.40792-6.23917,12.91951-12.45472Z"/></svg>