<svg id="Layer_1" data-name="Layer 1" xmlns="http://www.w3.org/2000/svg" viewBox="0 0 190 80"><defs><style>.cls-1{fill:none;}.cls-2{fill:#76b900;}</style></defs><path class="cls-1" d="M121.55882,40a26.43687,26.43687,0,0,0-6.45167-17.32187L109.70438,31.277l-8.5131,13.549-.52682.83851-.83851.52682L86.277,54.70438,77.6781,60.1072A26.53731,26.53731,0,0,0,121.55882,40Z"/><polygon class="cls-1" points="83.969 51.031 97.518 42.518 106.031 28.969 92.482 37.482 83.969 51.031"/><path class="cls-1" d="M95,13.44118A26.53735,26.53735,0,0,0,74.8928,57.322L80.29562,48.723l8.51305-13.549.52682-.83846.83851-.52682,13.549-8.513,8.59888-5.40282A26.437,26.437,0,0,0,95,13.44118Z"/><path class="cls-1" d="M95,4.23546A35.76454,35.76454,0,1,0,130.76454,40,35.76452,35.76452,0,0,0,95,4.23546Zm0,66.72183a30.83692,30.83692,0,0,1-21.19006-8.41965l-3.62544,2.27793,2.27792-3.62549A30.93379,30.93379,0,0,1,116.19,17.4624l3.62554-2.278L117.5376,18.81A30.93378,30.93378,0,0,1,95,70.95729Z"/><path class="cls-2" d="M95,0a40,40,0,1,0,40,40A40,40,0,0,0,95,0Zm0,75.76454A35.76454,35.76454,0,1,1,130.76454,40,35.76448,35.76448,0,0,1,95,75.76454Z"/><path class="cls-2" d="M117.5376,18.81,116.19,17.4624A30.93379,30.93379,0,0,0,72.4624,61.19008l1.34752,1.34756A30.93381,30.93381,0,0,0,117.5376,18.81ZM103.723,25.29567,90.174,33.80872l-.83851.52682-.52682.83846L80.29562,48.723,74.8928,57.322a26.5373,26.5373,0,0,1,37.4291-37.4291Zm2.308,3.6733L97.51794,42.518,83.969,51.031l8.513-13.549ZM86.277,54.70438l13.549-8.513.83851-.52682.52682-.83851,8.5131-13.549,5.40277-8.59888A26.53727,26.53727,0,0,1,77.6781,60.1072Z"/></svg>