<svg id="final" xmlns="http://www.w3.org/2000/svg" viewBox="0 0 80 80"><defs><style>.cls-1{fill:none;}.cls-2{fill:#76b900;}</style></defs><title>gfn-icon-set-r2</title><path class="cls-1" d="M40,11.3A28.7,28.7,0,1,0,68.7,40,28.73,28.73,0,0,0,40,11.3Zm1.39,41.1H35.05V46.54h6.34Zm7.92-14.82a3.74,3.74,0,0,1-3.8,3.79H42a.91.91,0,0,0-.89.93v1.54H35.82V40a2.88,2.88,0,0,1,3-3H42.6A1.36,1.36,0,0,0,44,35.64V31.12a1.36,1.36,0,0,0-1.38-1.37H36.51a.9.9,0,0,0-.89.92v4H30.29V29.46a4.6,4.6,0,0,1,4.6-4.6H44.7a4.6,4.6,0,0,1,4.61,4.6Z"/><path class="cls-2" d="M40,5A35,35,0,1,0,75,40,35,35,0,0,0,40,5Zm0,63.7A28.7,28.7,0,1,1,68.7,40,28.73,28.73,0,0,1,40,68.7Z"/><rect class="cls-2" x="35.05" y="46.54" width="6.34" height="5.85"/><path class="cls-2" d="M44.7,24.86H34.89a4.6,4.6,0,0,0-4.6,4.6v5.17h5.33v-4a.9.9,0,0,1,.89-.92H42.6A1.36,1.36,0,0,1,44,31.12v4.52A1.36,1.36,0,0,1,42.6,37H38.81a2.88,2.88,0,0,0-3,3v3.84h5.33V42.3a.91.91,0,0,1,.89-.93h3.47a3.74,3.74,0,0,0,3.8-3.79V29.46A4.6,4.6,0,0,0,44.7,24.86Z"/></svg>