<svg id="final" xmlns="http://www.w3.org/2000/svg" viewBox="0 0 80 80"><defs><style>.cls-1{fill:none;}.cls-2{fill:#76b900;}</style></defs><title>gfn-icon-set-r2</title><path class="cls-1" d="M40,11.3A28.7,28.7,0,1,0,68.7,40,28.73,28.73,0,0,0,40,11.3ZM35.37,54.2,23.64,42.48l4.95-5,6.78,6.78,16-16,5,4.95Z"/><path class="cls-2" d="M40,5A35,35,0,1,0,75,40,35,35,0,0,0,40,5Zm0,63.7A28.7,28.7,0,1,1,68.7,40,28.73,28.73,0,0,1,40,68.7Z"/><polygon class="cls-2" points="35.37 44.3 28.59 37.52 23.64 42.48 35.37 54.2 56.35 33.22 51.41 28.27 35.37 44.3"/></svg>