<svg id="Layer_1" data-name="Layer 1" xmlns="http://www.w3.org/2000/svg" viewBox="0 0 90 70"><defs><style>.cls-1{fill:#76b900;}</style></defs><path class="cls-1" d="M35.67284,46.05761H77.43476L87.5,8.46173H11.86118l-1.1198-4.423H2.5V6.25021H9.0201l9.595,37.91551-.01458.00432.28562,1.06581.20787.82176h.01188L20.46,51.11129a7.73285,7.73285,0,1,0,10.678,8.21546h26.7618a7.7404,7.7404,0,1,0,0-2.21152H31.138a7.72888,7.72888,0,0,0-7.62857-6.63457,7.57671,7.57671,0,0,0-.90491.09178l-1.20942-4.51483Zm29.85555,6.63457a5.52881,5.52881,0,1,1-5.5288,5.52881A5.53531,5.53531,0,0,1,65.52839,52.69218ZM29.03827,58.221a5.52881,5.52881,0,1,1-5.52881-5.52881A5.53531,5.53531,0,0,1,29.03827,58.221Zm-8.223-14.3749L18.57673,35H35.67284v8.84609ZM57.78806,32.78848H37.88436V21.73086h19.9037Zm2.21153-11.05762h21.659L78.69764,32.78848H59.99959ZM35.67284,32.78848h-17.656L15.219,21.73086H35.67284Zm2.21152,11.05761V35h19.9037v8.84609Zm37.85289,0H59.99959V35h18.1063ZM84.619,10.67325l-2.36864,8.84609H59.99959V10.67325Zm-26.83091,0v8.84609H37.88436V10.67325Zm-22.11522,0v8.84609H14.65905l-2.23851-8.84609Z"/></svg>