<svg id="Layer_1" data-name="Layer 1" xmlns="http://www.w3.org/2000/svg" viewBox="0 0 90 70"><defs><style>.cls-1{fill:#76b900;}</style></defs><path class="cls-1" d="M60.839,19.1609C49.34806,7.67,32.76008,1.98515,14.10856,3.14914L13,3.21842V15.06616l1.27369-.09816C28.79236,13.84905,42.1124,18.55928,51.7765,28.22338c9.66526,9.66525,14.372,22.98414,13.25537,37.504l-.09815,1.27254H76.78145l.06929-1.10856C78.01588,47.24673,72.32989,30.65182,60.839,19.1609ZM74.55163,64.635H67.47417c.806-14.72422-4.149-28.20708-14.02559-38.08365a48.71619,48.71619,0,0,0-34.997-14.10989c-1.02079,0-2.052.02887-3.08664.0843V5.44825C32.87671,4.61452,48.38962,10.0557,59.1669,20.833S75.38536,47.13125,74.55163,64.635ZM14.10856,26.74068,13,26.81V38.62074h1.18246c18.30048,0,27.19667,8.8962,27.19667,27.19667v1.18247H53.18876l.06928-1.10972c.72634-11.6214-2.82567-21.97373-10.00013-29.14935C36.08229,29.56635,25.74035,26.012,14.10856,26.74068ZM43.73136,64.635c-.38684-18.44136-9.92508-27.97959-28.36643-28.36643v-7.223c10.48628-.4007,19.75892,2.9065,26.2209,9.36733,6.46083,6.462,9.76688,15.73924,9.36733,26.22206ZM21.27725,50.44538a8.27667,8.27667,0,1,0,8.27724,8.27725A8.28655,8.28655,0,0,0,21.27725,50.44538Zm0,14.18841a5.91174,5.91174,0,1,1,5.91232-5.91116A5.919,5.919,0,0,1,21.27725,64.63379Z"/></svg>