<svg id="Layer_1" data-name="Layer 1" xmlns="http://www.w3.org/2000/svg" viewBox="0 0 90 70"><defs><style>.cls-1{fill:#76b900;}</style></defs><path class="cls-1" d="M54.35412,27.44911a7.01559,7.01559,0,1,0,7.01559,7.01559A7.02326,7.02326,0,0,0,54.35412,27.44911Zm0,11.69265a4.67706,4.67706,0,1,1,4.67706-4.67706A4.68242,4.68242,0,0,1,54.35412,39.14176ZM66.04677,16.32282A3.5078,3.5078,0,1,0,62.539,12.815,3.51163,3.51163,0,0,0,66.04677,16.32282Zm0-4.67706A1.16927,1.16927,0,1,1,64.87751,12.815,1.17078,1.17078,0,0,1,66.04677,11.64576Zm0,9.957a3.5078,3.5078,0,1,0,3.5078,3.5078A3.51163,3.51163,0,0,0,66.04677,21.60278Zm0,4.67706A1.16927,1.16927,0,1,1,67.216,25.11058,1.17,1.17,0,0,1,66.04677,26.27984Zm-5.84632-3.50779a3.5078,3.5078,0,1,0-3.5078-3.5078A3.51163,3.51163,0,0,0,60.20045,22.77205Zm0-4.67707a1.16927,1.16927,0,1,1-1.16927,1.16927A1.17006,1.17006,0,0,1,60.20045,18.095ZM71.8931,15.75645a3.5078,3.5078,0,1,0,3.5078,3.5078A3.51164,3.51164,0,0,0,71.8931,15.75645Zm0,4.67706a1.16927,1.16927,0,1,1,1.16927-1.16926A1.17006,1.17006,0,0,1,71.8931,20.43351Zm-40.92428,7.0156a7.01559,7.01559,0,1,0,7.01559,7.01559A7.02325,7.02325,0,0,0,30.96882,27.44911Zm0,11.69265a4.67706,4.67706,0,1,1,4.67706-4.67706A4.68241,4.68241,0,0,1,30.96882,39.14176ZM79.5744,10.07a5.85655,5.85655,0,0,0-4.1815-4.1461l-14.432-3.73731a5.85318,5.85318,0,0,0-3.95655.37L53.80146,4.0638H36.19854L32.99562,2.55655a5.86063,5.86063,0,0,0-3.95655-.37L14.6071,5.92389A5.85655,5.85655,0,0,0,10.4256,10.07L1.69608,42.64955,7.515,64.37l8.50344,3.24516A5.84451,5.84451,0,0,0,23.75,63.66778l3.55689-13.27413,6.35445-4.2363H56.33868l6.35445,4.2363L66.25,63.66664a5.84776,5.84776,0,0,0,7.73154,3.94969L82.485,64.37l5.81892-21.72048ZM52.53913,6.40233,48.15268,22.77205H41.84732L37.46087,6.40233ZM80.5347,62.61156,73.148,65.432a3.50742,3.50742,0,0,1-4.63937-2.36937l-3.78527-14.126-7.67673-5.11782H32.95337l-7.67673,5.11782-3.78527,14.126A3.5058,3.5058,0,0,1,16.852,65.43081L9.4653,62.61156l-5.34848-19.962L12.6842,10.67517A3.51273,3.51273,0,0,1,15.194,8.1882L29.626,4.44975a3.52025,3.52025,0,0,1,2.37393.22266L34.9482,6.05977l5.10412,19.05081h9.89536L55.0518,6.05977l2.94828-1.38736A3.51962,3.51962,0,0,1,60.374,4.44975L74.806,8.1882a3.51273,3.51273,0,0,1,2.50981,2.487l8.56738,31.97438ZM22.784,25.11058V20.43351H18.1069V18.095H22.784V13.41792h2.33853V18.095h4.67706v2.33853H25.12249v4.67707Z"/></svg>