<svg xmlns="http://www.w3.org/2000/svg" width="17.97" height="38.22" viewBox="0 0 17.97 38.22">
  <defs>
    <style>
      .cls-1 {
        fill: #747474;
        fill-rule: evenodd;
      }
    </style>
  </defs>
  <path id="icn-facebook.svg" class="cls-1" d="M1369.95,7136.95v-3.29a6.788,6.788,0,0,1,.07-1.15,2.144,2.144,0,0,1,.31-0.8,1.284,1.284,0,0,1,.8-0.55,5.735,5.735,0,0,1,1.46-.15h3.32v-6.59h-5.31c-3.07,0-5.27.73-6.61,2.17s-2.02,3.58-2.02,6.39v3.97H1358v6.59h3.97v19.11h7.98v-19.11h5.31l0.7-6.59h-6.01Zm0,0" transform="translate(-1358 -7124.44)"/>
</svg>
