<svg xmlns="http://www.w3.org/2000/svg" width="45" height="36.03" viewBox="0 0 45 36.03">
  <defs>
    <style>
      .cls-1 {
        fill: #747474;
        fill-rule: evenodd;
      }
    </style>
  </defs>
  <path id="icn-twitter.svg" class="cls-1" d="M1449,7131.26a18.684,18.684,0,0,1-5.31,1.41,8.928,8.928,0,0,0,4.06-5.01,18.229,18.229,0,0,1-5.86,2.19,9.347,9.347,0,0,0-13.27-.21,8.7,8.7,0,0,0-2.7,6.43,9.561,9.561,0,0,0,.24,2.08,26.343,26.343,0,0,1-19.03-9.51,8.961,8.961,0,0,0-.14,8.92,9.033,9.033,0,0,0,3,3.23,9.176,9.176,0,0,1-4.17-1.15v0.11a8.684,8.684,0,0,0,2.1,5.78,9.037,9.037,0,0,0,5.29,3.14,9.507,9.507,0,0,1-2.42.31,12.193,12.193,0,0,1-1.74-.14,8.861,8.861,0,0,0,3.25,4.49,9.109,9.109,0,0,0,5.37,1.81,18.222,18.222,0,0,1-11.45,3.88,18.893,18.893,0,0,1-2.23-.11,25.9,25.9,0,0,0,14.17,4.08,27.159,27.159,0,0,0,9.22-1.54,23.717,23.717,0,0,0,7.37-4.1,27.872,27.872,0,0,0,5.27-5.93,26.473,26.473,0,0,0,3.3-6.98,25.269,25.269,0,0,0,1.08-7.3c0-.53-0.01-0.92-0.03-1.18a19.317,19.317,0,0,0,4.63-4.7h0Zm0,0" transform="translate(-1404 -7126.97)"/>
</svg>
